<?xml version="1.0" standalone="no"?>
<!DOCTYPE svg PUBLIC "-//W3C//DTD SVG 20010904//EN"
 "http://www.w3.org/TR/2001/REC-SVG-20010904/DTD/svg10.dtd">
<svg version="1.0" xmlns="http://www.w3.org/2000/svg"
 width="210.000000pt" height="210.000000pt" viewBox="0 0 210.000000 210.000000"
 preserveAspectRatio="xMidYMid meet">
<metadata>
Created by potrace 1.14, written by Peter Selinger 2001-2017
</metadata>
<g transform="translate(0.000000,210.000000) scale(0.100000,-0.100000)"
fill="#000000" stroke="none">
<path d="M1088 1426 c-55 -20 -85 -42 -118 -88 -41 -57 -60 -127 -60 -224 0
-138 44 -229 133 -276 62 -33 174 -32 242 2 45 23 50 29 53 63 2 20 0 37 -3
37 -4 0 -25 -11 -48 -24 -111 -66 -226 -33 -272 77 -36 87 -27 231 18 298 34
50 71 72 129 77 45 3 62 -1 112 -27 32 -17 60 -31 62 -31 14 0 1 70 -15 84
-45 41 -163 57 -233 32z"/>
<path d="M345 1418 c-3 -7 -4 -144 -3 -303 l3 -290 35 0 35 0 3 138 3 137 139
0 140 0 0 -141 0 -140 38 3 37 3 0 300 0 300 -37 3 -38 3 0 -130 0 -131 -140
0 -139 0 -3 128 -3 127 -33 3 c-20 2 -34 -2 -37 -10z"/>
<path d="M1455 1417 c-3 -7 -4 -143 -3 -302 l3 -290 165 0 165 0 0 30 0 30
-127 3 -128 3 0 109 0 109 108 3 107 3 0 30 0 30 -107 3 -108 3 0 89 0 90 125
0 125 0 0 35 0 35 -160 0 c-120 0 -162 -3 -165 -13z"/>
</g>
</svg>
